<svg width="240" height="240" viewBox="0 0 240 240" fill="none" xmlns="http://www.w3.org/2000/svg">
<path d="M171.888 107.038C177.984 111.794 186.782 110.708 191.538 104.612C196.294 98.5159 195.208 89.7184 189.112 84.9621L171.888 107.038ZM185.496 198.787C191.177 193.543 191.532 184.686 186.287 179.004C181.043 173.323 172.186 172.968 166.504 178.213L185.496 198.787ZM117.142 225.803L115.979 239.755L117.142 225.803ZM121.858 225.798L123.054 239.747L121.858 225.798ZM144.046 217.996L134.55 207.708L144.046 217.996ZM127.446 225.319L128.641 239.268L127.446 225.319ZM111.721 225.352L110.559 239.303L111.721 225.352ZM59.1005 201.899L84.348 227.147L104.147 207.348L78.8995 182.101L59.1005 201.899ZM132.269 76.1259L171.888 107.038L189.112 84.9621L149.492 54.0502L132.269 76.1259ZM104.77 72.9608L112.02 71.925L108.06 44.2064L100.81 45.2422L104.77 72.9608ZM115.98 71.925L125.636 73.3045L129.596 45.5859L119.94 44.2064L115.98 71.925ZM153.542 228.283L185.496 198.787L166.504 178.213L134.55 207.708L153.542 228.283ZM110.559 239.303L115.979 239.755L118.304 211.852L112.884 211.4L110.559 239.303ZM123.054 239.747L128.641 239.268L126.25 211.37L120.662 211.849L123.054 239.747ZM76.0152 58.1949L59.0052 76.4583L79.4948 95.5417L96.5048 77.2783L76.0152 58.1949ZM115.979 239.755C118.333 239.951 120.7 239.948 123.054 239.747L120.662 211.849C119.878 211.916 119.089 211.917 118.304 211.852L115.979 239.755ZM134.55 207.708C132.267 209.816 129.347 211.105 126.25 211.37L128.641 239.268C137.931 238.472 146.691 234.607 153.542 228.283L134.55 207.708ZM149.492 54.0502C143.713 49.5408 136.853 46.6226 129.596 45.5859L125.636 73.3045C128.056 73.6501 130.342 74.6228 132.269 76.1259L149.492 54.0502ZM84.348 227.147C91.3723 234.171 100.659 238.478 110.559 239.303L112.884 211.4C109.584 211.125 106.488 209.689 104.147 207.348L84.348 227.147ZM112.02 71.925C113.333 71.7374 114.667 71.7374 115.98 71.925L119.94 44.2064C116 43.6436 112 43.6436 108.06 44.2064L112.02 71.925ZM100.81 45.2422C91.3077 46.5996 82.5572 51.1709 76.0152 58.1949L96.5048 77.2783C98.6855 74.937 101.602 73.4132 104.77 72.9608L100.81 45.2422Z" fill="#FFA116"/>
<path d="M136 14.5L46.2611 110.616C40.544 116.74 36.715 124.486 35.2709 132.738V132.738C34.4359 137.509 34.4167 142.44 35.2319 147.215V147.215C36.7075 155.858 40.8298 163.83 47.0297 170.03L90 213" stroke="black" stroke-width="28" stroke-linecap="round"/>
<path d="M107 142H208" stroke="#B3B3B3" stroke-width="28" stroke-linecap="round"/>
</svg>
